# xmcd
#
# Track frame offsets: 
#        150
#        3966
#        19030
#        35100
#        51527
#        65289
#        81565
#        97490
#        110995
#        126810
#        140225
#        143452
#        156116
#        170206
#        189335
#        205737
#        219866
#        235846
#        252956
#        268388
#        287146
#
# Disc length: 3913 seconds
#
# Revision: 0
# Processed by: cddbd v1.5.2PL0 Copyright (c) Steve Scherf et al.
# Submitted via: ExactAudioCopyFreeDBPlugin 1.0
#
DISCID=4a0f4715
DTITLE=DJ Paul - Master of Evil
DYEAR=2015
DGENRE=The Wicked Shit
TTITLE0=Welcome
TTITLE1=Down Bad
TTITLE2=I'm Just Sayin
TTITLE3=Bust Dat Cap
TTITLE4=Dats If Fa Ya
TTITLE5=All Kinda Drugs
TTITLE6=Play Witcha Life
TTITLE7=Goin In and Out
TTITLE8=She Rocks Dat
TTITLE9=Die Anyway
TTITLE10=Info
TTITLE11=I Don't Know
TTITLE12=Lay Down Today
TTITLE13=F U 2
TTITLE14=I Done Lost Zaggin
TTITLE15=You Know Where Im Goin
TTITLE16=Shut It Down
TTITLE17=My Price is My Price
TTITLE18=Loud, Loud
TTITLE19=Blackhaven Zone
TTITLE20=Goodbye
EXTD=
EXTT0=
EXTT1=
EXTT2=
EXTT3=
EXTT4=
EXTT5=
EXTT6=
EXTT7=
EXTT8=
EXTT9=
EXTT10=
EXTT11=
EXTT12=
EXTT13=
EXTT14=
EXTT15=
EXTT16=
EXTT17=
EXTT18=
EXTT19=
EXTT20=
PLAYORDER=
